<mxfile host="app.diagrams.net" agent="Mozilla/5.0 (Windows NT 10.0; Win64; x64) AppleWebKit/537.36 (KHTML, like Gecko) Chrome/129.0.0.0 Safari/537.36" version="24.7.16">
  <diagram name="Page-1" id="13e1069c-82ec-6db2-03f1-153e76fe0fe0">
    <mxGraphModel dx="1313" dy="696" grid="1" gridSize="10" guides="1" tooltips="1" connect="1" arrows="1" fold="1" page="1" pageScale="1" pageWidth="1100" pageHeight="850" background="none" math="0" shadow="0">
      <root>
        <mxCell id="0" />
        <mxCell id="1" parent="0" />
        <mxCell id="7baba1c4bc27f4b0-2" value="Sistema de gestion de stock" style="shape=umlLifeline;perimeter=lifelinePerimeter;whiteSpace=wrap;html=1;container=1;collapsible=0;recursiveResize=0;outlineConnect=0;rounded=1;shadow=0;comic=0;labelBackgroundColor=none;strokeWidth=1;fontFamily=Verdana;fontSize=12;align=center;" parent="1" vertex="1">
          <mxGeometry x="240" y="80" width="100" height="580" as="geometry" />
        </mxCell>
        <mxCell id="7baba1c4bc27f4b0-10" value="" style="html=1;points=[];perimeter=orthogonalPerimeter;rounded=0;shadow=0;comic=0;labelBackgroundColor=none;strokeWidth=1;fontFamily=Verdana;fontSize=12;align=center;" parent="7baba1c4bc27f4b0-2" vertex="1">
          <mxGeometry x="45" y="100" width="10" height="470" as="geometry" />
        </mxCell>
        <mxCell id="7baba1c4bc27f4b0-3" value="Base de datos" style="shape=umlLifeline;perimeter=lifelinePerimeter;whiteSpace=wrap;html=1;container=1;collapsible=0;recursiveResize=0;outlineConnect=0;rounded=1;shadow=0;comic=0;labelBackgroundColor=none;strokeWidth=1;fontFamily=Verdana;fontSize=12;align=center;" parent="1" vertex="1">
          <mxGeometry x="400" y="80" width="100" height="580" as="geometry" />
        </mxCell>
        <mxCell id="7baba1c4bc27f4b0-13" value="" style="html=1;points=[];perimeter=orthogonalPerimeter;rounded=0;shadow=0;comic=0;labelBackgroundColor=none;strokeWidth=1;fontFamily=Verdana;fontSize=12;align=center;" parent="7baba1c4bc27f4b0-3" vertex="1">
          <mxGeometry x="45" y="345" width="10" height="105" as="geometry" />
        </mxCell>
        <mxCell id="7baba1c4bc27f4b0-8" value="Usuario" style="shape=umlLifeline;perimeter=lifelinePerimeter;whiteSpace=wrap;html=1;container=1;collapsible=0;recursiveResize=0;outlineConnect=0;rounded=1;shadow=0;comic=0;labelBackgroundColor=none;strokeWidth=1;fontFamily=Verdana;fontSize=12;align=center;" parent="1" vertex="1">
          <mxGeometry x="100" y="80" width="100" height="580" as="geometry" />
        </mxCell>
        <mxCell id="7baba1c4bc27f4b0-9" value="" style="html=1;points=[];perimeter=orthogonalPerimeter;rounded=0;shadow=0;comic=0;labelBackgroundColor=none;strokeWidth=1;fontFamily=Verdana;fontSize=12;align=center;" parent="7baba1c4bc27f4b0-8" vertex="1">
          <mxGeometry x="45" y="100" width="10" height="470" as="geometry" />
        </mxCell>
        <mxCell id="7baba1c4bc27f4b0-11" value="&lt;font style=&quot;font-size: 11px;&quot;&gt;Iniciar sesion&lt;/font&gt;" style="html=1;verticalAlign=bottom;endArrow=block;entryX=0;entryY=0;labelBackgroundColor=none;fontFamily=Verdana;fontSize=12;edgeStyle=elbowEdgeStyle;elbow=vertical;startArrow=oval;startFill=1;" parent="1" source="7baba1c4bc27f4b0-9" target="7baba1c4bc27f4b0-10" edge="1">
          <mxGeometry relative="1" as="geometry">
            <mxPoint x="220" y="190" as="sourcePoint" />
          </mxGeometry>
        </mxCell>
        <mxCell id="tiGROchgM4NCG0W9CU8v-2" value="&lt;font style=&quot;font-size: 11px;&quot;&gt;Selecciona &quot;Registrar&amp;nbsp;&lt;/font&gt;&lt;div&gt;&lt;font style=&quot;font-size: 11px;&quot;&gt;producto&quot;&lt;/font&gt;&lt;/div&gt;" style="html=1;verticalAlign=bottom;endArrow=block;labelBackgroundColor=none;fontFamily=Verdana;fontSize=12;edgeStyle=elbowEdgeStyle;elbow=vertical;exitX=1.028;exitY=0.194;exitDx=0;exitDy=0;exitPerimeter=0;entryX=0.063;entryY=0.193;entryDx=0;entryDy=0;entryPerimeter=0;startArrow=oval;startFill=1;" edge="1" parent="1" source="7baba1c4bc27f4b0-9" target="7baba1c4bc27f4b0-10">
          <mxGeometry relative="1" as="geometry">
            <mxPoint x="155" y="271.15" as="sourcePoint" />
            <mxPoint x="284.58000000000004" y="270" as="targetPoint" />
          </mxGeometry>
        </mxCell>
        <mxCell id="tiGROchgM4NCG0W9CU8v-4" value="&lt;font style=&quot;font-size: 11px;&quot;&gt;Completar formulario&amp;nbsp;&lt;/font&gt;" style="html=1;verticalAlign=bottom;endArrow=block;labelBackgroundColor=none;fontFamily=Verdana;fontSize=12;edgeStyle=elbowEdgeStyle;elbow=vertical;exitX=0.998;exitY=0.319;exitDx=0;exitDy=0;exitPerimeter=0;entryX=-0.022;entryY=0.317;entryDx=0;entryDy=0;entryPerimeter=0;startArrow=oval;startFill=1;" edge="1" parent="1" source="7baba1c4bc27f4b0-9" target="7baba1c4bc27f4b0-10">
          <mxGeometry relative="1" as="geometry">
            <mxPoint x="160" y="331.15" as="sourcePoint" />
            <mxPoint x="280" y="330" as="targetPoint" />
          </mxGeometry>
        </mxCell>
        <mxCell id="tiGROchgM4NCG0W9CU8v-8" value="&lt;font style=&quot;font-size: 11px;&quot;&gt;Insertar producto&lt;/font&gt;" style="html=1;verticalAlign=bottom;endArrow=block;labelBackgroundColor=none;fontFamily=Verdana;fontSize=12;edgeStyle=elbowEdgeStyle;elbow=vertical;exitX=0.965;exitY=0.536;exitDx=0;exitDy=0;exitPerimeter=0;entryX=-0.113;entryY=0.06;entryDx=0;entryDy=0;entryPerimeter=0;startArrow=oval;startFill=1;" edge="1" parent="1" source="7baba1c4bc27f4b0-10" target="7baba1c4bc27f4b0-13">
          <mxGeometry relative="1" as="geometry">
            <mxPoint x="300" y="431.15" as="sourcePoint" />
            <mxPoint x="429.58000000000004" y="430" as="targetPoint" />
          </mxGeometry>
        </mxCell>
        <mxCell id="tiGROchgM4NCG0W9CU8v-9" value="&lt;font style=&quot;font-size: 11px;&quot;&gt;Confirmacion&lt;/font&gt;" style="html=1;verticalAlign=bottom;endArrow=block;entryX=0.93;entryY=0.597;labelBackgroundColor=none;fontFamily=Verdana;fontSize=12;edgeStyle=elbowEdgeStyle;elbow=vertical;entryDx=0;entryDy=0;entryPerimeter=0;exitX=-0.043;exitY=0.322;exitDx=0;exitDy=0;exitPerimeter=0;startArrow=oval;startFill=1;" edge="1" parent="1" source="7baba1c4bc27f4b0-13" target="7baba1c4bc27f4b0-10">
          <mxGeometry relative="1" as="geometry">
            <mxPoint x="435" y="460" as="sourcePoint" />
            <mxPoint x="310.0000000000001" y="460.43999999999994" as="targetPoint" />
          </mxGeometry>
        </mxCell>
        <mxCell id="tiGROchgM4NCG0W9CU8v-1" value="&lt;font style=&quot;font-size: 11px;&quot;&gt;Mostrar menu&lt;/font&gt;" style="html=1;verticalAlign=bottom;endArrow=block;entryX=0.944;entryY=0.085;labelBackgroundColor=none;fontFamily=Verdana;fontSize=12;edgeStyle=elbowEdgeStyle;elbow=vertical;entryDx=0;entryDy=0;entryPerimeter=0;exitX=0.033;exitY=0.087;exitDx=0;exitDy=0;exitPerimeter=0;startArrow=oval;startFill=1;" edge="1" parent="1" source="7baba1c4bc27f4b0-10" target="7baba1c4bc27f4b0-9">
          <mxGeometry relative="1" as="geometry">
            <mxPoint x="280" y="220" as="sourcePoint" />
            <mxPoint x="155.00000000000009" y="220.43999999999994" as="targetPoint" />
          </mxGeometry>
        </mxCell>
        <mxCell id="tiGROchgM4NCG0W9CU8v-3" value="&lt;font style=&quot;font-size: 11px;&quot;&gt;Mostrar formulario&lt;/font&gt;" style="html=1;verticalAlign=bottom;endArrow=block;labelBackgroundColor=none;fontFamily=Verdana;fontSize=12;edgeStyle=elbowEdgeStyle;elbow=vertical;exitX=0.021;exitY=0.253;exitDx=0;exitDy=0;exitPerimeter=0;entryX=1.03;entryY=0.255;entryDx=0;entryDy=0;entryPerimeter=0;startArrow=oval;startFill=1;" edge="1" parent="1" source="7baba1c4bc27f4b0-10" target="7baba1c4bc27f4b0-9">
          <mxGeometry relative="1" as="geometry">
            <mxPoint x="275" y="300" as="sourcePoint" />
            <mxPoint x="160" y="300" as="targetPoint" />
          </mxGeometry>
        </mxCell>
        <mxCell id="tiGROchgM4NCG0W9CU8v-5" value="&lt;font style=&quot;font-size: 11px;&quot;&gt;Enviar formulario&amp;nbsp;&lt;/font&gt;" style="html=1;verticalAlign=bottom;endArrow=block;labelBackgroundColor=none;fontFamily=Verdana;fontSize=12;edgeStyle=elbowEdgeStyle;elbow=vertical;exitX=1.029;exitY=0.383;exitDx=0;exitDy=0;exitPerimeter=0;entryX=0.044;entryY=0.382;entryDx=0;entryDy=0;entryPerimeter=0;startArrow=oval;startFill=1;" edge="1" parent="1" source="7baba1c4bc27f4b0-9" target="7baba1c4bc27f4b0-10">
          <mxGeometry relative="1" as="geometry">
            <mxPoint x="160" y="360" as="sourcePoint" />
            <mxPoint x="270" y="360" as="targetPoint" />
          </mxGeometry>
        </mxCell>
        <mxCell id="tiGROchgM4NCG0W9CU8v-6" value="&lt;font style=&quot;font-size: 11px;&quot;&gt;Validar formulario&lt;/font&gt;" style="html=1;verticalAlign=bottom;endArrow=block;entryX=1.019;entryY=0.448;labelBackgroundColor=none;fontFamily=Verdana;fontSize=12;edgeStyle=elbowEdgeStyle;elbow=horizontal;entryDx=0;entryDy=0;entryPerimeter=0;exitX=0.004;exitY=0.446;exitDx=0;exitDy=0;exitPerimeter=0;startArrow=oval;startFill=1;" edge="1" parent="1" source="7baba1c4bc27f4b0-10" target="7baba1c4bc27f4b0-9">
          <mxGeometry relative="1" as="geometry">
            <mxPoint x="280" y="390" as="sourcePoint" />
            <mxPoint x="160.00000000000009" y="390.43999999999994" as="targetPoint" />
          </mxGeometry>
        </mxCell>
        <mxCell id="tiGROchgM4NCG0W9CU8v-7" value="&lt;font style=&quot;font-size: 11px;&quot;&gt;Guardar producto&lt;/font&gt;" style="html=1;verticalAlign=bottom;endArrow=block;entryX=1.134;entryY=0.5;labelBackgroundColor=none;fontFamily=Verdana;fontSize=12;edgeStyle=elbowEdgeStyle;elbow=vertical;entryDx=0;entryDy=0;entryPerimeter=0;startArrow=oval;startFill=1;" edge="1" parent="1" target="7baba1c4bc27f4b0-9">
          <mxGeometry relative="1" as="geometry">
            <mxPoint x="285" y="414.78" as="sourcePoint" />
            <mxPoint x="160.00000000000009" y="415.2199999999999" as="targetPoint" />
          </mxGeometry>
        </mxCell>
        <mxCell id="tiGROchgM4NCG0W9CU8v-10" value="&lt;font style=&quot;font-size: 11px;&quot;&gt;Mostrar &quot;Registro&amp;nbsp;&lt;/font&gt;&lt;div&gt;&lt;font style=&quot;font-size: 11px;&quot;&gt;con exito&quot;&lt;/font&gt;&lt;/div&gt;" style="html=1;verticalAlign=bottom;endArrow=block;labelBackgroundColor=none;fontFamily=Verdana;fontSize=12;edgeStyle=elbowEdgeStyle;elbow=vertical;exitX=-0.09;exitY=0.678;exitDx=0;exitDy=0;exitPerimeter=0;entryX=0.993;entryY=0.675;entryDx=0;entryDy=0;entryPerimeter=0;startArrow=oval;startFill=1;" edge="1" parent="1" source="7baba1c4bc27f4b0-10" target="7baba1c4bc27f4b0-9">
          <mxGeometry x="-0.0044" y="-8" relative="1" as="geometry">
            <mxPoint x="280" y="530" as="sourcePoint" />
            <mxPoint x="180" y="500" as="targetPoint" />
            <mxPoint as="offset" />
          </mxGeometry>
        </mxCell>
        <mxCell id="tiGROchgM4NCG0W9CU8v-11" value="&lt;font style=&quot;font-size: 11px;&quot;&gt;Desea registrar&amp;nbsp;&lt;/font&gt;&lt;div&gt;&lt;font style=&quot;font-size: 11px;&quot;&gt;otro producto?&lt;/font&gt;&lt;/div&gt;" style="html=1;verticalAlign=bottom;endArrow=block;entryX=0.929;entryY=0.768;labelBackgroundColor=none;fontFamily=Verdana;fontSize=12;edgeStyle=elbowEdgeStyle;elbow=vertical;entryDx=0;entryDy=0;entryPerimeter=0;exitX=0.14;exitY=0.768;exitDx=0;exitDy=0;exitPerimeter=0;startArrow=oval;startFill=1;" edge="1" parent="1" source="7baba1c4bc27f4b0-10" target="7baba1c4bc27f4b0-9">
          <mxGeometry relative="1" as="geometry">
            <mxPoint x="280" y="541" as="sourcePoint" />
            <mxPoint x="170.00000000000009" y="540.4399999999999" as="targetPoint" />
          </mxGeometry>
        </mxCell>
        <mxCell id="tiGROchgM4NCG0W9CU8v-12" value="&lt;font style=&quot;font-size: 11px;&quot;&gt;&quot;Si&quot;&lt;/font&gt;" style="html=1;verticalAlign=bottom;endArrow=block;labelBackgroundColor=none;fontFamily=Verdana;fontSize=12;edgeStyle=elbowEdgeStyle;elbow=vertical;exitX=0.929;exitY=0.831;exitDx=0;exitDy=0;exitPerimeter=0;entryX=-0.04;entryY=0.83;entryDx=0;entryDy=0;entryPerimeter=0;startArrow=oval;startFill=1;" edge="1" parent="1" source="7baba1c4bc27f4b0-9" target="7baba1c4bc27f4b0-10">
          <mxGeometry relative="1" as="geometry">
            <mxPoint x="165.42" y="571.15" as="sourcePoint" />
            <mxPoint x="280" y="570" as="targetPoint" />
          </mxGeometry>
        </mxCell>
        <mxCell id="tiGROchgM4NCG0W9CU8v-13" value="&lt;font style=&quot;font-size: 11px;&quot;&gt;Mostrar formulario&lt;/font&gt;" style="html=1;verticalAlign=bottom;endArrow=block;entryX=1.02;entryY=0.893;labelBackgroundColor=none;fontFamily=Verdana;fontSize=12;edgeStyle=elbowEdgeStyle;elbow=vertical;entryDx=0;entryDy=0;entryPerimeter=0;startArrow=oval;startFill=1;" edge="1" parent="1" target="7baba1c4bc27f4b0-9">
          <mxGeometry relative="1" as="geometry">
            <mxPoint x="285" y="600" as="sourcePoint" />
            <mxPoint x="160.00000000000009" y="600.4399999999999" as="targetPoint" />
          </mxGeometry>
        </mxCell>
        <mxCell id="tiGROchgM4NCG0W9CU8v-14" value="&lt;font style=&quot;font-size: 11px;&quot;&gt;&quot;No&quot;&lt;/font&gt;" style="html=1;verticalAlign=bottom;endArrow=block;labelBackgroundColor=none;fontFamily=Verdana;fontSize=12;edgeStyle=elbowEdgeStyle;elbow=vertical;exitX=0.951;exitY=0.937;exitDx=0;exitDy=0;exitPerimeter=0;entryX=-0.02;entryY=0.938;entryDx=0;entryDy=0;entryPerimeter=0;startArrow=oval;startFill=1;" edge="1" parent="1" source="7baba1c4bc27f4b0-9" target="7baba1c4bc27f4b0-10">
          <mxGeometry relative="1" as="geometry">
            <mxPoint x="155.42" y="621.15" as="sourcePoint" />
            <mxPoint x="285.00000000000006" y="620" as="targetPoint" />
          </mxGeometry>
        </mxCell>
        <mxCell id="tiGROchgM4NCG0W9CU8v-15" value="&lt;font style=&quot;font-size: 11px;&quot;&gt;Cerrar sesion&lt;/font&gt;" style="html=1;verticalAlign=bottom;endArrow=block;labelBackgroundColor=none;fontFamily=Verdana;fontSize=12;edgeStyle=elbowEdgeStyle;elbow=vertical;exitX=1.049;exitY=0.991;exitDx=0;exitDy=0;exitPerimeter=0;entryX=0;entryY=0.991;entryDx=0;entryDy=0;entryPerimeter=0;startArrow=oval;startFill=1;" edge="1" parent="1" source="7baba1c4bc27f4b0-9" target="7baba1c4bc27f4b0-10">
          <mxGeometry relative="1" as="geometry">
            <mxPoint x="155.42" y="651.15" as="sourcePoint" />
            <mxPoint x="285.00000000000006" y="650" as="targetPoint" />
          </mxGeometry>
        </mxCell>
        <mxCell id="tiGROchgM4NCG0W9CU8v-16" value="CU009 REGISTRAR PRODUCTO" style="rounded=0;whiteSpace=wrap;html=1;shadow=1;strokeColor=#CCFFE6;fillColor=#CCFFCC;" vertex="1" parent="1">
          <mxGeometry x="490" y="330" width="120" height="60" as="geometry" />
        </mxCell>
      </root>
    </mxGraphModel>
  </diagram>
</mxfile>
